<svg xmlns="http://www.w3.org/2000/svg" width="20" height="18" viewBox="0 0 20 18" fill="none">
    <path d="M5.94029 9.93029C5.60083 10.1491 5.14829 10.0518 4.92599 9.71151V9.70743C4.92192 9.70335 4.92192 9.69927 4.91786 9.6954L0.189682 1.89202C-0.202451 1.26807 0.00785234 0.328284 0.872457 0.0163123C0.904796 0.00407806 0.937135 0 0.969677 0H5.92422C6.33242 0 6.67167 0.368657 6.67167 0.786047V1.70178C6.67574 2.11081 6.34849 2.44725 5.94029 2.45112H3.36193L6.92632 8.40693C7.14476 8.7554 7.0396 9.21724 6.69608 9.44011L5.94029 9.93029Z" fill="#C5CCCE" style="fill:#C5CCCE;fill:color(display-p3 0.7713 0.7991 0.8083);fill-opacity:1;"/>
    <path d="M9.39352 2.45617C8.99345 2.45617 8.6662 2.12809 8.6662 1.72701V1.72294L8.66213 0.912625C8.65807 0.280524 9.16735 0.0415498 9.78565 0.0415498L18.8177 0.0293153C19.5453 0.0252373 20.1636 0.697914 19.9614 1.60936C19.9535 1.6377 19.9412 1.66625 19.9252 1.69459L17.4438 5.84321C17.2335 6.18352 16.7891 6.28894 16.4497 6.08239C16.4456 6.08239 16.4456 6.08239 16.4415 6.07831L15.6091 5.60016C15.2696 5.38137 15.1685 4.92768 15.3827 4.58329L16.6516 2.46025L9.39352 2.45617Z" fill="#17A3D1" style="fill:#17A3D1;fill:color(display-p3 0.0902 0.6392 0.8196);fill-opacity:1;"/>
    <path d="M13.6285 7.53217C13.8347 7.18778 14.2832 7.07441 14.6267 7.28097L14.6307 7.28504L15.3257 7.69836C15.8714 8.02236 15.8149 8.57738 15.4956 9.1163L10.9531 16.7129C10.5813 17.3409 9.82163 17.4988 9.14272 16.8587C9.12238 16.8385 9.10224 16.8143 9.09024 16.7859L6.60483 12.5845C6.42301 12.2279 6.56436 11.7944 6.91602 11.6121C6.91988 11.6121 6.92395 11.608 6.92802 11.608L7.76456 11.138C8.12822 10.9598 8.56469 11.1015 8.75058 11.4622L10.0075 13.5689L13.6285 7.53217Z" fill="#C5CCCE" style="fill:#C5CCCE;fill:color(display-p3 0.7713 0.7991 0.8083);fill-opacity:1;"/>
</svg>
