<svg width="13" height="13" viewBox="0 0 13 13" fill="none" xmlns="http://www.w3.org/2000/svg">
    <path d="M11.999 6.5C11.999 3.46239 9.53623 1 6.49902 1C3.462 1.00022 1 3.46253 1 6.5C1 9.53747 3.462 11.9998 6.49902 12C7.47755 12 8.39541 11.7449 9.19043 11.2979L9.27734 11.2588C9.36705 11.2288 9.4646 11.2248 9.55762 11.248L11.8994 11.834L11.4941 8.99414C11.481 8.90155 11.4944 8.80722 11.5322 8.72168C11.8323 8.04294 11.999 7.29156 11.999 6.5ZM6.87402 6.75L6.97559 6.75977C7.20326 6.80652 7.37402 7.00849 7.37402 7.25C7.37402 7.49151 7.20326 7.69348 6.97559 7.74023L6.87402 7.75H4.25C3.97386 7.75 3.75 7.52614 3.75 7.25C3.75 6.97386 3.97386 6.75 4.25 6.75H6.87402ZM8.74902 3.75L8.84961 3.75977C9.07767 3.80622 9.24902 4.00822 9.24902 4.25C9.24902 4.49178 9.07767 4.69378 8.84961 4.74023L8.74902 4.75H4.25C3.97386 4.75 3.75 4.52614 3.75 4.25C3.75 3.97386 3.97386 3.75 4.25 3.75H8.74902ZM12.999 6.5C12.999 7.38021 12.8208 8.21949 12.5029 8.98633L12.9951 12.4287C13.0187 12.5935 12.9586 12.7596 12.835 12.8711C12.7114 12.9825 12.5403 13.0247 12.3789 12.9844L9.49707 12.2637C8.59919 12.7316 7.58016 13 6.49902 13C2.90963 12.9998 0 10.0897 0 6.5C0 2.91033 2.90963 0.000220603 6.49902 0C10.0886 0 12.999 2.91019 12.999 6.5Z" fill="currentColor"/>
</svg>
