<svg viewBox="0 0 9 10" fill="none" xmlns="http://www.w3.org/2000/svg">
    <path d="M1 8.29367V1.70636C1 1.17225 1.4459 0.739136 1.99615 0.739136H5.36928L5.37275 0.739179C5.40847 0.74004 5.44254 0.754207 5.46788 0.778818L7.95917 3.19939C7.98532 3.2248 8 3.25926 8 3.29519V8.29367C8 8.8277 7.55417 9.26087 7.00454 9.26087H1.99615C1.4459 9.26087 1 8.82777 1 8.29367ZM1.27885 8.29367C1.27885 8.678 1.59976 8.98994 1.99615 8.98994H7.00454C7.40017 8.98994 7.72115 8.67807 7.72115 8.29367V3.35129L5.31154 1.01007H1.99615C1.59976 1.01007 1.27885 1.32202 1.27885 1.70636V8.29367Z" fill="#7A898E" stroke="#7A898E" style="fill:#7A898E;fill:color(display-p3 0.4792 0.5386 0.5583);fill-opacity:1;stroke:#7A898E;stroke:color(display-p3 0.4792 0.5386 0.5583);stroke-opacity:1;" stroke-width="0.4" stroke-linecap="round" stroke-linejoin="round"/>
    <path d="M5.39895 0.739136L5.40238 0.739179C5.4377 0.740056 5.47139 0.754474 5.49644 0.77952L7.95974 3.24291C7.99916 3.28234 8.01096 3.34164 7.98962 3.39316C7.96828 3.44467 7.91801 3.47827 7.86225 3.47827H5.86328C5.53072 3.47827 5.26099 3.20868 5.26099 2.87595V0.877L5.26103 0.873443C5.26292 0.798946 5.3239 0.739136 5.39884 0.739136H5.39895ZM5.5367 2.87595C5.5367 3.05635 5.68295 3.20254 5.86328 3.20254H7.52944L5.5367 1.20972V2.87595Z" fill="#7A898E" stroke="#7A898E" style="fill:#7A898E;fill:color(display-p3 0.4792 0.5386 0.5583);fill-opacity:1;stroke:#7A898E;stroke:color(display-p3 0.4792 0.5386 0.5583);stroke-opacity:1;" stroke-width="0.4" stroke-linecap="round" stroke-linejoin="round"/>
</svg>
