<svg width="14" height="14" viewBox="0 0 14 14" fill="none" xmlns="http://www.w3.org/2000/svg">
    <path d="M6.99609 0C8.10066 0 8.99609 0.89543 8.99609 2C8.99609 2.93024 8.36024 3.70898 7.5 3.93262V4.875H12.3184L12.4873 4.88379C13.3238 4.96622 13.9998 5.65238 14 6.51758V12.2324L13.9912 12.4033C13.909 13.1867 13.268 13.7893 12.4873 13.8662L12.3184 13.875H1.68164C0.826419 13.8747 0.0969139 13.2425 0.00878906 12.4033L0 12.2324V6.51758C0.000227844 5.59484 0.769312 4.87532 1.68164 4.875H6.5V3.93457C5.63585 3.7136 4.99609 2.93301 4.99609 2C4.99609 0.895452 5.89155 3.42738e-05 6.99609 0ZM1.68164 5.875C1.28935 5.87523 1.00015 6.1786 1 6.51758V12.2324L1.01367 12.3574C1.07456 12.6425 1.33845 12.8748 1.68164 12.875H12.3184L12.46 12.8613C12.7328 12.8076 12.9341 12.6019 12.9863 12.3574L13 12.2324V6.51758L12.9863 6.39258C12.9341 6.14805 12.7328 5.94239 12.46 5.88867L12.3184 5.875H1.68164ZM4.5 7.375C5.60457 7.375 6.5 8.27043 6.5 9.375C6.5 10.4796 5.60457 11.375 4.5 11.375C3.39543 11.375 2.5 10.4796 2.5 9.375C2.5 8.27043 3.39543 7.375 4.5 7.375ZM9.5 7.375C10.6046 7.375 11.5 8.27043 11.5 9.375C11.5 10.4796 10.6046 11.375 9.5 11.375C8.39543 11.375 7.5 10.4796 7.5 9.375C7.5 8.27043 8.39543 7.375 9.5 7.375ZM4.5 8.375C3.94772 8.375 3.5 8.82271 3.5 9.375C3.5 9.92729 3.94772 10.375 4.5 10.375C5.05228 10.375 5.5 9.92729 5.5 9.375C5.5 8.82271 5.05228 8.375 4.5 8.375ZM9.5 8.375C8.94771 8.375 8.5 8.82271 8.5 9.375C8.5 9.92729 8.94771 10.375 9.5 10.375C10.0523 10.375 10.5 9.92729 10.5 9.375C10.5 8.82271 10.0523 8.375 9.5 8.375ZM6.99609 1C6.44384 1.00003 5.99609 1.44774 5.99609 2C5.99609 2.55226 6.44384 2.99997 6.99609 3C7.54838 3 7.99609 2.55228 7.99609 2C7.99609 1.44772 7.54838 1 6.99609 1Z" fill="#C5CCCE" style="fill:#C5CCCE;fill:color(display-p3 0.7713 0.7991 0.8083);fill-opacity:1;"/>
</svg>
