<svg width="16" height="16" viewBox="0 0 16 16" fill="none" xmlns="http://www.w3.org/2000/svg">
    <path d="M2.55542 7.22222C2.55542 3.78578 5.34097 1 8.77712 1C12.2133 1 14.9988 3.78578 14.9988 7.22222C14.9988 8.11669 14.8101 8.96707 14.4703 9.73571L15 13.4439L11.8224 12.6494C10.9223 13.1557 9.88342 13.4444 8.77712 13.4444M1.00074 11.1111C1.00074 11.6702 1.11868 12.2016 1.33103 12.682L1 14.9996L2.98578 14.5031C3.54833 14.8195 4.19756 15 4.88893 15C7.03632 15 8.77712 13.2589 8.77712 11.1111C8.77712 8.96334 7.03632 7.22222 4.88893 7.22222C2.74154 7.22222 1.00074 8.96334 1.00074 11.1111Z" stroke="#0E142C" stroke-linecap="round" stroke-linejoin="round"/>
</svg>
