<svg width="24" height="24" viewBox="0 0 24 24" fill="none" xmlns="http://www.w3.org/2000/svg">
    <mask id="mask0_37_356" style="mask-type:alpha" maskUnits="userSpaceOnUse" x="0" y="0" width="24" height="24">
        <rect width="24" height="24" fill="#D9D9D9"/>
    </mask>
    <g mask="url(#mask0_37_356)">
        <path d="M13.3668 18.9991H7.30061C6.9523 19.0132 6.6146 18.8589 6.36815 18.5731C6.12171 18.2873 5.98866 17.8956 6.00076 17.4917L6.0015 10.8157C5.9894 10.4118 6.12245 10.0202 6.36889 9.73437C6.61534 9.44857 6.95304 9.29427 7.30135 9.30831H10.3341L10.3333 6.5083C10.3212 6.10437 10.4543 5.71274 10.7007 5.42694C10.9472 5.14115 11.2849 4.98684 11.6332 5.00088L17.6994 5.00088C18.0477 4.98684 18.3854 5.14115 18.6318 5.42694C18.8783 5.71274 19.0113 6.10437 18.9992 6.5083L18.9992 13.1852C19.0111 13.589 18.878 13.9805 18.6316 14.2663C18.3852 14.552 18.0476 14.7064 17.6994 14.6926H14.6667L14.6667 17.4917C14.6786 17.8956 14.5454 18.2871 14.2991 18.5728C14.0527 18.8586 13.7151 19.0129 13.3668 18.9991ZM7.08335 10.3852L7.08333 17.9223H13.5833L13.5833 14.6926H12.6083H11.6332C11.2849 14.7064 10.9473 14.552 10.7009 14.2663C10.4546 13.9805 10.3214 13.589 10.3333 13.1852V10.3852H7.08335ZM11.4166 6.07774L11.4174 13.6157L17.9174 13.6157L17.9166 6.07774L11.4166 6.07774Z" fill="#F7F7F9"/>
    </g>
</svg>
