<svg width="20" height="18" viewBox="0 0 20 18" fill="none" xmlns="http://www.w3.org/2000/svg">
    <path d="M5.94029 10.2963C5.60083 10.515 5.14829 10.4178 4.92599 10.0775V10.0734C4.92192 10.0693 4.92192 10.0652 4.91786 10.0614L0.189682 2.25799C-0.202451 1.63404 0.00785234 0.694251 0.872457 0.382279C0.904796 0.370045 0.937135 0.365967 0.969677 0.365967H5.92422C6.33242 0.365967 6.67167 0.734624 6.67167 1.15201V2.06774C6.67574 2.47677 6.34849 2.81321 5.94029 2.81709H3.36193L6.92632 8.7729C7.14476 9.12137 7.0396 9.58321 6.69608 9.80608L5.94029 10.2963Z" fill="#0E142C"/>
    <path d="M9.39352 2.82214C8.99345 2.82214 8.6662 2.49406 8.6662 2.09298V2.0889L8.66213 1.27859C8.65807 0.646491 9.16735 0.407517 9.78565 0.407517L18.8177 0.395282C19.5453 0.391204 20.1636 1.06388 19.9614 1.97533C19.9535 2.00367 19.9412 2.03222 19.9252 2.06056L17.4438 6.20918C17.2335 6.54949 16.7891 6.65491 16.4497 6.44836C16.4456 6.44836 16.4456 6.44836 16.4415 6.44428L15.6091 5.96612C15.2696 5.74734 15.1685 5.29365 15.3827 4.94926L16.6516 2.82622L9.39352 2.82214Z" fill="#17A3D1"/>
    <path d="M13.6285 7.89814C13.8347 7.55375 14.2832 7.44038 14.6267 7.64693L14.6307 7.65101L15.3257 8.06432C15.8714 8.38832 15.8149 8.94335 15.4956 9.48227L10.9531 17.0789C10.5813 17.7069 9.82163 17.8647 9.14272 17.2247C9.12238 17.2045 9.10224 17.1802 9.09024 17.1519L6.60483 12.9505C6.42301 12.5938 6.56436 12.1603 6.91602 11.978C6.91988 11.978 6.92395 11.974 6.92802 11.974L7.76456 11.504C8.12822 11.3258 8.56469 11.4675 8.75058 11.8282L10.0075 13.9349L13.6285 7.89814Z" fill="#0E142C"/>
</svg>
